# xmcd
#
# Track frame offsets:
#	150
#	14457
#	29427
#	44317
#	60630
#	80842
#	95750
#	106577
#	118307
#	130817
#
# Disc length: 1937 seconds
# Revision: 0
# Processed by: cddbd v1.5.2PL0 Copyright (c) Steve Scherf et al.
# Submitted via: dBpowerAMP V12.0
#
DISCID=85078f0a
DTITLE=Rosanne Cash - Favorites
DYEAR=2002
DGENRE=Country
TTITLE0=Tennessee Flat Top Box
TTITLE1=It Hasn't Happened Yet
TTITLE2=Seven Year Ache
TTITLE3=Third Rate Romance
TTITLE4=Blue Moon With Heartache
TTITLE5=I Don't Know Why You Don't Want Me
TTITLE6=That's How I Got To Memphis
TTITLE7=I Don't Want To Spoil The Party
TTITLE8=Big River
TTITLE9=My Baby Thinks He's A Train
EXTD=
EXTT0=
EXTT1=
EXTT2=
EXTT3=
EXTT4=
EXTT5=
EXTT6=
EXTT7=
EXTT8=
EXTT9=
PLAYORDER=
